<?xml version="1.0" encoding="UTF-8" standalone="no"?>
<svg
   width="50"
   height="50"
   viewBox="0 0 50 50"
   fill="none"
   version="1.1"
   id="svg1798"
   sodipodi:docname="Favoritos.svg"
   inkscape:version="1.2 (dc2aedaf03, 2022-05-15)"
   xmlns:inkscape="http://www.inkscape.org/namespaces/inkscape"
   xmlns:sodipodi="http://sodipodi.sourceforge.net/DTD/sodipodi-0.dtd"
   xmlns="http://www.w3.org/2000/svg"
   xmlns:svg="http://www.w3.org/2000/svg">
  <sodipodi:namedview
     id="namedview1800"
     pagecolor="#ffffff"
     bordercolor="#000000"
     borderopacity="0.25"
     inkscape:showpageshadow="2"
     inkscape:pageopacity="0.0"
     inkscape:pagecheckerboard="0"
     inkscape:deskcolor="#d1d1d1"
     showgrid="false"
     inkscape:zoom="8"
     inkscape:cx="30.125"
     inkscape:cy="29.875"
     inkscape:window-width="1366"
     inkscape:window-height="705"
     inkscape:window-x="-8"
     inkscape:window-y="-8"
     inkscape:window-maximized="1"
     inkscape:current-layer="svg1798" />
  <path
     d="M 36.250098,0 C 31.899996,0 27.725079,2.2070781 25.0001,5.6948437 22.274979,2.2070781 18.100062,0 13.749959,0 6.049974,0 0,6.5940625 0,14.986406 0,25.286094 8.4999888,33.678437 21.374967,46.430469 L 25.0001,50 28.62509,46.403281 C 41.500069,33.678437 50,25.286094 50,14.986406 50,6.5940625 43.950083,0 36.250098,0 Z m -11.000122,42.370625 -0.249876,0.2725 -0.250019,-0.2725 C 12.849948,30.626719 5.0000086,22.861094 5.0000086,14.986406 c 0,-5.4496872 3.7499993,-9.5368747 8.7499504,-9.5368747 3.850064,0 7.600064,2.6976562 8.925136,6.4306247 h 4.674955 c 1.299985,-3.7329685 5.049984,-6.4306247 8.900048,-6.4306247 4.999951,0 8.749951,4.0871875 8.749951,9.5368747 0,7.874688 -7.84994,15.640313 -19.750073,27.384219 z"
     fill="url(#paint0_linear_802_512)"
     id="path1789"
     style="fill:url(#paint0_linear_802_512);stroke-width:1.49666" />
  <defs
     id="defs1796">
    <linearGradient
       id="paint0_linear_802_512"
       x1="22.6952"
       y1="4.1599898"
       x2="72.944801"
       y2="11.4119"
       gradientUnits="userSpaceOnUse"
       gradientTransform="matrix(1.4335956,0,0,1.5625,-11.644466,-12.5)">
      <stop
         stop-color="#002F52"
         id="stop1791" />
      <stop
         offset="1"
         stop-color="#326589"
         id="stop1793" />
    </linearGradient>
  </defs>
</svg>
